<svg width="73" height="71" viewBox="0 0 73 71" fill="none" xmlns="http://www.w3.org/2000/svg">
<path d="M58.4868 38.7387C57.83 38.7387 57.1434 38.5341 56.4866 38.388C55.1565 38.101 53.8494 37.72 52.5755 37.248C51.1905 36.7546 49.6681 36.7803 48.3012 37.3199C46.9344 37.8595 45.8196 38.875 45.1715 40.171L44.5147 41.4864C41.6068 39.9026 38.9347 37.9356 36.5733 35.6403C34.229 33.3282 32.2199 30.712 30.6023 27.865L31.8562 27.0465C33.1798 26.412 34.2171 25.3206 34.7682 23.9823C35.3194 22.644 35.3455 21.1534 34.8417 19.7974C34.3676 18.5475 33.9787 17.2683 33.6773 15.9682C33.5281 15.3251 33.4086 14.6528 33.3191 13.9805C32.9565 11.9216 31.8551 10.057 30.213 8.72263C28.571 7.38825 26.4963 6.67173 24.3626 6.7021H15.4061C14.1194 6.69027 12.8453 6.95001 11.6703 7.46364C10.4954 7.97727 9.44734 8.73273 8.59743 9.67859C7.74752 10.6244 7.11574 11.7385 6.7451 12.9449C6.37446 14.1513 6.27366 15.4217 6.44957 16.6697C8.04006 28.9155 13.7522 40.2934 22.6837 49.0063C31.6152 57.7192 43.2569 63.2704 55.77 64.7831H56.9045C59.1061 64.7863 61.2317 63.9954 62.8755 62.5616C63.82 61.7345 64.5745 60.7206 65.0892 59.5868C65.6038 58.4531 65.8669 57.2254 65.861 55.9847V47.2156C65.8244 45.1852 65.0693 43.2301 63.7244 41.6842C62.3796 40.1382 60.5284 39.0972 58.4868 38.7387ZM59.9796 56.277C59.979 56.6921 59.8882 57.1022 59.7132 57.4802C59.5382 57.8582 59.283 58.1954 58.9645 58.4693C58.6319 58.7529 58.2419 58.9645 57.8201 59.0905C57.3982 59.2164 56.954 59.2537 56.5164 59.2001C45.3354 57.7964 34.9499 52.7883 26.9979 44.9657C19.046 37.143 13.9802 26.9511 12.5997 15.9974C12.5522 15.5692 12.5938 15.1361 12.7221 14.7241C12.8504 14.3121 13.0627 13.9299 13.3461 13.6005C13.6258 13.2887 13.9702 13.0388 14.3563 12.8674C14.7424 12.6961 15.1613 12.6072 15.5852 12.6067H24.5417C25.236 12.5915 25.9139 12.8138 26.4588 13.2353C27.0037 13.6568 27.3815 14.2511 27.5272 14.9159C27.6466 15.7148 27.7959 16.5041 27.975 17.2835C28.3199 18.8244 28.7789 20.3387 29.3484 21.8143L25.1687 23.7143C24.8113 23.8748 24.4898 24.1029 24.2227 24.3854C23.9556 24.6679 23.7482 24.9993 23.6122 25.3605C23.4763 25.7217 23.4146 26.1057 23.4306 26.4903C23.4467 26.875 23.5402 27.2527 23.7058 27.6019C28.0025 36.613 35.4007 43.8564 44.6043 48.0633C45.3311 48.3556 46.1464 48.3556 46.8732 48.0633C47.2456 47.9329 47.5877 47.7314 47.8799 47.4704C48.172 47.2095 48.4083 46.8943 48.575 46.5433L50.426 42.451C51.9694 42.9914 53.5446 43.4404 55.1431 43.7956C55.9392 43.971 56.7453 44.1171 57.5613 44.2341C58.2403 44.3767 58.8473 44.7466 59.2778 45.2801C59.7083 45.8136 59.9353 46.4774 59.9199 47.1571L59.9796 56.277Z" fill="white"/>
</svg>
