<?xml version="1.0" standalone="no"?>
<!DOCTYPE svg PUBLIC "-//W3C//DTD SVG 20010904//EN"
 "http://www.w3.org/TR/2001/REC-SVG-20010904/DTD/svg10.dtd">
<svg version="1.0" xmlns="http://www.w3.org/2000/svg"
 width="225.000000pt" height="225.000000pt" viewBox="0 0 225.000000 225.000000"
 preserveAspectRatio="xMidYMid meet">

<g transform="translate(0.000000,225.000000) scale(0.100000,-0.100000)"
fill="#000000" stroke="none">
<path d="M665 1529 c-130 -12 -265 -110 -322 -233 -25 -55 -28 -71 -28 -171 0
-102 2 -115 31 -175 75 -159 251 -254 425 -230 157 22 292 138 337 292 18 61
30 74 30 35 0 -36 57 -148 101 -198 37 -42 138 -102 171 -102 8 0 18 -4 21
-10 4 -5 39 -12 78 -15 57 -4 85 0 139 18 37 12 74 29 83 36 8 8 20 14 25 14
11 0 64 52 64 63 0 16 -19 6 -25 -13 -3 -11 -16 -25 -28 -31 l-22 -12 21 24
c12 13 20 29 17 36 -2 6 6 17 18 23 12 7 19 8 15 2 -3 -5 2 -16 11 -23 15 -12
16 -12 10 3 -4 11 -2 17 5 15 5 -1 12 6 13 17 2 10 13 25 25 33 11 8 19 20 17
26 -2 7 5 29 16 50 38 74 20 276 -26 283 -10 1 -17 -5 -18 -14 0 -14 -2 -13
-9 3 -5 12 -9 14 -9 6 -1 -8 -4 -12 -7 -9 -3 4 0 16 6 28 11 21 12 21 25 3 12
-14 14 -15 15 -3 0 32 -95 144 -113 133 -6 -3 -7 -1 -4 4 4 6 -1 17 -10 24
-11 10 -14 10 -9 2 5 -9 2 -11 -8 -7 -9 3 -13 10 -10 15 3 5 -1 10 -8 11 -29
3 -34 5 -68 23 -38 20 -158 33 -187 20 -10 -5 -28 -10 -40 -11 -46 -6 -150
-64 -189 -106 -37 -41 -69 -94 -66 -110 1 -5 -3 -8 -9 -8 -6 0 -9 -7 -5 -15 3
-8 1 -15 -4 -15 -5 0 -15 -18 -21 -41 l-12 -40 -17 53 c-26 82 -54 128 -112
185 -90 88 -201 125 -333 112z m770 -40 c11 -16 1 -19 -13 -3 -7 8 -8 14 -3
14 5 0 13 -5 16 -11z m55 -10 c0 -18 -2 -20 -15 -9 -13 11 -13 15 -3 21 18 12
18 12 18 -12z m198 -2 c8 -10 6 -13 -11 -14 -12 0 -16 1 -8 4 11 5 11 7 0 14
-8 5 -9 9 -3 9 6 0 16 -6 22 -13z m-53 -7 c-27 -12 -35 -12 -35 0 0 6 12 10
28 9 24 0 25 -1 7 -9z m-271 -9 c-8 -8 -43 -8 -38 0 2 4 13 7 24 6 10 -1 17
-3 14 -6z m46 -1 c-20 -13 -33 -13 -25 0 3 6 14 10 23 10 15 0 15 -2 2 -10z
m-130 -43 c0 -2 -12 -14 -27 -28 -20 -18 -24 -19 -13 -4 18 24 40 42 40 32z
m525 -8 c4 -5 -2 -6 -12 -2 -16 6 -16 5 -4 -11 8 -9 20 -15 27 -12 7 3 18 -3
26 -12 11 -15 11 -15 -2 -6 -8 6 -30 10 -49 8 -21 -1 -29 1 -20 6 9 6 10 12 1
22 -9 11 -7 14 8 15 11 1 22 -2 25 -8z m-205 -69 c0 -5 -6 -10 -14 -10 -8 0
-18 5 -21 10 -3 6 3 10 14 10 12 0 21 -4 21 -10z m252 -12 c-7 -7 -12 -8 -12
-2 0 6 3 14 7 17 3 4 9 5 12 2 2 -3 -1 -11 -7 -17z m-299 -5 c-7 -2 -19 -2
-25 0 -7 3 -2 5 12 5 14 0 19 -2 13 -5z m47 -13 c0 -5 -10 -10 -22 -11 -20 -1
-19 -2 5 -9 16 -5 36 -6 45 -3 14 4 14 3 3 -5 -11 -8 -9 -12 10 -23 13 -7 28
-12 32 -11 5 1 6 -1 3 -6 -3 -5 3 -26 13 -46 12 -23 21 -32 25 -24 3 7 3 2 0
-11 -4 -14 -1 -27 7 -33 11 -8 10 -9 -3 -4 -15 4 -18 -1 -18 -27 0 -18 -7 -40
-15 -50 -7 -11 -11 -25 -8 -33 3 -8 2 -14 -3 -13 -18 4 -44 -13 -37 -25 3 -6
3 -8 -2 -4 -4 4 -20 1 -36 -7 -36 -19 -90 -19 -134 -1 -18 8 -37 11 -41 8 -4
-4 -4 -2 -1 4 3 6 -5 21 -18 32 -13 12 -27 33 -31 47 l-6 25 -247 0 -247 0
-10 -28 c-17 -44 -77 -84 -132 -90 -62 -6 -112 16 -148 64 -25 32 -29 47 -29
99 0 52 4 67 29 99 78 103 241 81 286 -38 l10 -28 243 7 c133 4 243 8 243 9 1
0 5 12 9 25 6 18 4 22 -6 16 -8 -5 -12 -6 -9 -2 3 3 8 5 12 4 13 -4 56 46 51
59 -3 8 0 14 7 14 6 0 8 -4 5 -10 -3 -5 -2 -10 4 -10 5 0 13 5 16 10 3 6 17
10 29 10 13 0 39 7 57 15 40 17 59 19 59 5z m-200 -35 c15 -18 5 -34 -20 -32
-10 1 -17 5 -14 9 3 4 12 4 21 1 11 -4 14 -2 11 8 -3 8 -12 13 -21 13 -9 -1
-14 2 -11 7 8 13 20 11 34 -6z m-200 -35 c0 -13 -1 -13 -10 0 -8 13 -10 12
-10 -4 0 -11 -2 -17 -5 -14 -4 3 -3 18 1 33 5 20 9 23 15 13 5 -7 9 -20 9 -28z
m708 -15 c-9 -9 -30 14 -23 25 6 9 10 8 17 -4 6 -10 8 -19 6 -21z m-748 -25
c0 -5 -5 -10 -11 -10 -5 0 -7 5 -4 10 3 6 8 10 11 10 2 0 4 -4 4 -10z m38 -2
c-2 -5 -8 -9 -13 -9 -5 0 -11 4 -13 9 -1 5 4 9 13 9 9 0 14 -4 13 -9z m562
-22 c0 -8 -4 -18 -10 -21 -5 -3 -10 3 -10 14 0 12 5 21 10 21 6 0 10 -6 10
-14z m-1 -103 c-2 -28 -2 -28 -7 -3 -4 23 -5 24 -13 5 -7 -19 -8 -19 -8 3 -1
13 5 22 14 22 10 0 15 -9 14 -27z m121 -33 c0 -5 -4 -10 -10 -10 -5 0 -10 5
-10 10 0 6 5 10 10 10 6 0 10 -4 10 -10z m33 -10 c-3 -11 -9 -20 -14 -20 -11
0 -11 3 -3 24 9 23 23 20 17 -4z m-713 -12 c0 -5 -4 -6 -10 -3 -5 3 -10 1 -10
-6 0 -10 -3 -10 -11 -2 -6 6 -8 16 -5 22 8 12 36 4 36 -11z m195 -28 c9 0 14
-4 10 -9 -13 -22 -40 -7 -42 23 -1 28 -1 29 7 9 5 -13 17 -23 25 -23z m475 12
c0 -13 -12 -22 -22 -16 -10 6 -1 24 13 24 5 0 9 -4 9 -8z m-683 -49 c-3 -10
-5 -4 -5 12 0 17 2 24 5 18 2 -7 2 -21 0 -30z m700 5 c0 -13 -1 -17 -4 -10 -4
10 -9 9 -20 -5 -15 -19 -7 3 10 25 12 16 13 16 14 -10z m-387 -28 c-21 -7 -19
-8 18 -9 23 -1 42 -5 42 -11 0 -13 -7 -13 -69 2 -57 13 -59 29 -3 27 33 -1 34
-2 12 -9z m77 4 c-3 -3 -12 -4 -19 -1 -8 3 -5 6 6 6 11 1 17 -2 13 -5z m-110
-40 c-3 -3 -12 -4 -19 -1 -8 3 -5 6 6 6 11 1 17 -2 13 -5z m-222 -14 c3 -5 1
-10 -4 -10 -6 0 -11 5 -11 10 0 6 2 10 4 10 3 0 8 -4 11 -10z m535 6 c0 -3 -4
-8 -10 -11 -5 -3 -10 -1 -10 4 0 6 5 11 10 11 6 0 10 -2 10 -4z m-503 -52 c2
-13 1 -15 -4 -4 -3 8 -11 19 -17 23 -7 6 -6 7 4 4 8 -2 16 -12 17 -23z m58
-34 c4 -6 10 -8 15 -5 5 3 18 -3 30 -15 26 -26 16 -25 -40 5 -25 13 -37 24
-28 25 9 0 20 -5 23 -10z m72 4 c-3 -3 -12 -4 -19 -1 -8 3 -5 6 6 6 11 1 17
-2 13 -5z m249 -3 c-4 -5 0 -12 6 -14 7 -3 3 -6 -9 -6 -23 -1 -30 9 -16 22 10
10 25 8 19 -2z m50 -26 c-36 -19 -47 -19 -22 0 11 8 27 15 35 15 9 0 3 -7 -13
-15z m-266 -5 c0 -5 -2 -10 -4 -10 -3 0 -8 5 -11 10 -3 6 -1 10 4 10 6 0 11
-4 11 -10z m195 -20 c-3 -5 -14 -10 -23 -9 -14 0 -13 2 3 9 27 11 27 11 20 0z"/>
</g>
</svg>
