<svg width="42" height="51" viewBox="0 0 42 51" fill="none" xmlns="http://www.w3.org/2000/svg">
<path d="M21.1073 0.205902C15.6777 0.205902 10.4706 2.31765 6.63136 6.07659C2.79212 9.83552 0.635254 14.9337 0.635254 20.2497C0.635254 33.7792 18.6762 49.0626 19.4439 49.714C19.9074 50.1022 20.4973 50.3155 21.1073 50.3155C21.7172 50.3155 22.3071 50.1022 22.7706 49.714C23.6663 49.0626 41.5793 33.7792 41.5793 20.2497C41.5793 14.9337 39.4224 9.83552 35.5831 6.07659C31.7439 2.31765 26.5368 0.205902 21.1073 0.205902ZM21.1073 44.4275C15.6566 39.4165 5.75325 28.6179 5.75325 20.2497C5.75325 16.2627 7.3709 12.4391 10.2503 9.61986C13.1298 6.80066 17.0351 5.21684 21.1073 5.21684C25.1794 5.21684 29.0847 6.80066 31.9642 9.61986C34.8436 12.4391 36.4613 16.2627 36.4613 20.2497C36.4613 28.6179 26.5579 39.4416 21.1073 44.4275ZM21.1073 10.2278C19.0828 10.2278 17.1037 10.8156 15.4204 11.9168C13.7371 13.018 12.4252 14.5832 11.6504 16.4145C10.8757 18.2457 10.673 20.2608 11.0679 22.2048C11.4629 24.1489 12.4378 25.9346 13.8693 27.3362C15.3008 28.7378 17.1247 29.6923 19.1103 30.079C21.0959 30.4657 23.154 30.2672 25.0244 29.5087C26.8948 28.7502 28.4934 27.4656 29.6182 25.8175C30.7429 24.1694 31.3433 22.2318 31.3433 20.2497C31.3433 17.5917 30.2648 15.0426 28.3452 13.1631C26.4256 11.2837 23.822 10.2278 21.1073 10.2278ZM21.1073 25.2606C20.095 25.2606 19.1055 24.9667 18.2638 24.4161C17.4222 23.8655 16.7662 23.0829 16.3788 22.1673C15.9915 21.2516 15.8901 20.2441 16.0876 19.2721C16.2851 18.3001 16.7725 17.4072 17.4883 16.7064C18.204 16.0056 19.116 15.5284 20.1088 15.335C21.1016 15.1417 22.1306 15.2409 23.0658 15.6202C24.001 15.9994 24.8003 16.6417 25.3627 17.4657C25.9251 18.2898 26.2253 19.2586 26.2253 20.2497C26.2253 21.5787 25.686 22.8532 24.7262 23.7929C23.7664 24.7327 22.4646 25.2606 21.1073 25.2606Z" fill="white"/>
</svg>
