<svg width="33" height="32" viewBox="0 0 33 32" fill="none" xmlns="http://www.w3.org/2000/svg">
<path d="M29.8423 0.874363C29.1409 0.874363 28.4684 1.14713 27.9725 1.63266C27.4765 2.11819 27.198 2.77671 27.198 3.46335V23.1138L5.27671 1.62517C4.77878 1.13765 4.10344 0.86377 3.39926 0.86377C2.69508 0.86377 2.01974 1.13765 1.52181 1.62517C1.02388 2.11268 0.744141 2.7739 0.744141 3.46335C0.744141 4.1528 1.02388 4.81401 1.52181 5.30153L23.4695 26.7642H3.39926C2.69795 26.7642 2.02536 27.037 1.52946 27.5225C1.03356 28.0081 0.75496 28.6666 0.75496 29.3532C0.75496 30.0399 1.03356 30.6984 1.52946 31.1839C2.02536 31.6694 2.69795 31.9422 3.39926 31.9422H29.8423C30.1878 31.9381 30.5292 31.8677 30.8471 31.7351C31.4932 31.4724 32.0067 30.9696 32.275 30.337C32.4105 30.0258 32.4824 29.6915 32.4866 29.3532V3.46335C32.4866 2.77671 32.208 2.11819 31.7121 1.63266C31.2162 1.14713 30.5436 0.874363 29.8423 0.874363Z" fill="white"/>
</svg>
