<svg width="48" height="48" viewBox="0 0 48 48" fill="none" xmlns="http://www.w3.org/2000/svg">
<path d="M24 14C22.0222 14 20.0888 14.5865 18.4443 15.6853C16.7998 16.7841 15.5181 18.3459 14.7612 20.1732C14.0043 22.0004 13.8063 24.0111 14.1921 25.9509C14.578 27.8907 15.5304 29.6725 16.9289 31.0711C18.3275 32.4696 20.1093 33.422 22.0491 33.8079C23.9889 34.1937 25.9996 33.9957 27.8268 33.2388C29.6541 32.4819 31.2159 31.2002 32.3147 29.5557C33.4135 27.9112 34 25.9778 34 24C34 21.3478 32.9464 18.8043 31.0711 16.9289C29.1957 15.0536 26.6522 14 24 14ZM24 30C22.8133 30 21.6533 29.6481 20.6666 28.9888C19.6799 28.3295 18.9108 27.3925 18.4567 26.2961C18.0026 25.1997 17.8838 23.9933 18.1153 22.8295C18.3468 21.6656 18.9182 20.5965 19.7574 19.7574C20.5965 18.9182 21.6656 18.3468 22.8295 18.1153C23.9933 17.8838 25.1997 18.0026 26.2961 18.4567C27.3925 18.9108 28.3295 19.6799 28.9888 20.6666C29.6481 21.6533 30 22.8133 30 24C30 25.5913 29.3679 27.1174 28.2426 28.2426C27.1174 29.3679 25.5913 30 24 30ZM34 12C33.6044 12 33.2178 12.1173 32.8889 12.3371C32.56 12.5568 32.3036 12.8692 32.1522 13.2346C32.0009 13.6001 31.9613 14.0022 32.0384 14.3902C32.1156 14.7781 32.3061 15.1345 32.5858 15.4142C32.8655 15.6939 33.2219 15.8844 33.6098 15.9616C33.9978 16.0387 34.3999 15.9991 34.7654 15.8478C35.1308 15.6964 35.4432 15.44 35.6629 15.1111C35.8827 14.7822 36 14.3956 36 14C36 13.4696 35.7893 12.9609 35.4142 12.5858C35.0391 12.2107 34.5304 12 34 12ZM43.88 16.48C43.8469 14.7708 43.5222 13.0799 42.92 11.48C42.3616 10.0241 41.5032 8.70198 40.4006 7.5994C39.298 6.49681 37.9759 5.63843 36.52 5.08C34.9201 4.4778 33.2292 4.15314 31.52 4.12C29.58 4 28.94 4 24 4C19.06 4 18.42 4 16.48 4.12C14.7708 4.15314 13.0799 4.4778 11.48 5.08C10.0241 5.63843 8.70198 6.49681 7.5994 7.5994C6.49681 8.70198 5.63843 10.0241 5.08 11.48C4.4778 13.0799 4.15314 14.7708 4.12 16.48C4 18.44 4 19.08 4 24C4 28.92 4 29.56 4.12 31.52C4.15314 33.2292 4.4778 34.9201 5.08 36.52C5.63843 37.9759 6.49681 39.298 7.5994 40.4006C8.70198 41.5032 10.0241 42.3616 11.48 42.92C13.0799 43.5222 14.7708 43.8469 16.48 43.88C18.48 43.88 19.06 44 24 44C28.94 44 29.58 44 31.52 43.88C33.2292 43.8469 34.9201 43.5222 36.52 42.92C37.9759 42.3616 39.298 41.5032 40.4006 40.4006C41.5032 39.298 42.3616 37.9759 42.92 36.52C43.5222 34.9201 43.8469 33.2292 43.88 31.52C43.88 29.52 44 28.92 44 24C44 19.08 44 18.44 43.88 16.48ZM39.88 31.34C39.8449 32.6092 39.6087 33.8648 39.18 35.06C38.8256 36.0047 38.2654 36.8587 37.54 37.56C36.8428 38.2857 35.9872 38.8402 35.04 39.18C33.842 39.6262 32.578 39.8695 31.3 39.9C29.42 39.9 28.84 40 23.98 40C19.12 40 18.56 40 16.68 40C15.404 39.9671 14.1415 39.7308 12.94 39.3C11.9953 38.9456 11.1413 38.3854 10.44 37.66C9.71431 36.9628 9.15984 36.1072 8.82 35.16C8.37561 33.9684 8.1323 32.7113 8.1 31.44C8.1 29.44 8.1 28.94 8.1 24.1C8.1 19.26 8.1 18.68 8.1 16.76C8.13447 15.4824 8.37768 14.2191 8.82 13.02C9.16511 12.0813 9.71907 11.2332 10.44 10.54C11.1372 9.81431 11.9928 9.25984 12.94 8.92C14.138 8.47379 15.402 8.23046 16.68 8.2C18.56 8 19.14 8 24 8C28.86 8 29.44 8 31.32 8C32.6043 8.03266 33.8745 8.27589 35.08 8.72C36.0187 9.06511 36.8668 9.61907 37.56 10.34C38.2857 11.0372 38.8402 11.8928 39.18 12.84C39.6696 14.0571 39.9469 15.3492 40 16.66C40 18.66 40.1 19.16 40.1 24C40.1 28.84 40 29.42 40 31.34H39.88Z" fill="white"/>
</svg>
