<svg width="48" height="48" viewBox="0 0 48 48" fill="none" xmlns="http://www.w3.org/2000/svg">
<path d="M34.9999 17.9978C33.2094 17.9971 31.4466 18.4399 29.8691 19.2869C29.7251 18.9077 29.4692 18.5814 29.1354 18.3511C28.8015 18.1209 28.4055 17.9976 27.9999 17.9978H19.9999C19.7373 17.9977 19.4771 18.0493 19.2344 18.1498C18.9917 18.2502 18.7711 18.3975 18.5854 18.5833C18.3996 18.769 18.2523 18.9896 18.1519 19.2323C18.0514 19.475 17.9998 19.7351 17.9999 19.9978V43.9978C17.9998 44.2605 18.0514 44.5206 18.1519 44.7634C18.2523 45.0061 18.3996 45.2266 18.5854 45.4124C18.7711 45.5981 18.9917 45.7454 19.2344 45.8459C19.4771 45.9463 19.7373 45.998 19.9999 45.9978H27.9999C28.2626 45.998 28.5228 45.9463 28.7655 45.8459C29.0082 45.7454 29.2287 45.5981 29.4145 45.4124C29.6002 45.2266 29.7476 45.0061 29.848 44.7634C29.9485 44.5206 30.0001 44.2605 29.9999 43.9978V32.9978C29.9999 32.4674 30.2107 31.9587 30.5857 31.5836C30.9608 31.2085 31.4695 30.9978 31.9999 30.9978C32.5304 30.9978 33.0391 31.2085 33.4142 31.5836C33.7892 31.9587 33.9999 32.4674 33.9999 32.9978V43.9978C33.9998 44.2605 34.0514 44.5206 34.1519 44.7634C34.2523 45.0061 34.3996 45.2266 34.5854 45.4124C34.7711 45.5981 34.9917 45.7454 35.2344 45.8459C35.4771 45.9463 35.7373 45.998 35.9999 45.9978H43.9999C44.2626 45.998 44.5228 45.9463 44.7655 45.8459C45.0082 45.7454 45.2287 45.5981 45.4145 45.4124C45.6002 45.2266 45.7476 45.0061 45.848 44.7634C45.9485 44.5206 46.0001 44.2605 45.9999 43.9978V28.9978C45.9963 26.0815 44.8362 23.2858 42.7741 21.2236C40.712 19.1615 37.9162 18.0014 34.9999 17.9978ZM41.9999 41.9978H37.9999V32.9978C37.9999 31.4065 37.3678 29.8804 36.2426 28.7552C35.1174 27.63 33.5912 26.9978 31.9999 26.9978C30.4086 26.9978 28.8825 27.63 27.7573 28.7552C26.6321 29.8804 25.9999 31.4065 25.9999 32.9978V41.9978H21.9999V21.9978H25.9999V23.4041C26.0002 23.8185 26.1291 24.2226 26.3688 24.5606C26.6086 24.8986 26.9474 25.1538 27.3384 25.291C27.7294 25.4282 28.1534 25.4406 28.5518 25.3265C28.9502 25.2124 29.3033 24.9775 29.5624 24.6541C30.46 23.5141 31.6911 22.683 33.0839 22.2766C34.4767 21.8702 35.9617 21.9089 37.3314 22.3872C38.7011 22.8656 39.8873 23.7598 40.7243 24.9449C41.5612 26.13 42.0072 27.547 41.9999 28.9978V41.9978ZM13.9999 17.9978H5.99994C5.73726 17.9977 5.47712 18.0493 5.2344 18.1498C4.99168 18.2502 4.77114 18.3975 4.58539 18.5833C4.39965 18.769 4.25233 18.9896 4.15188 19.2323C4.05142 19.475 3.99979 19.7351 3.99994 19.9978V43.9978C3.99979 44.2605 4.05142 44.5206 4.15187 44.7634C4.25233 45.0061 4.39964 45.2266 4.58539 45.4124C4.77114 45.5981 4.99167 45.7454 5.23439 45.8459C5.47711 45.9463 5.73726 45.998 5.99994 45.9978H13.9999C14.2626 45.998 14.5228 45.9463 14.7655 45.8459C15.0082 45.7454 15.2287 45.5981 15.4145 45.4124C15.6002 45.2266 15.7476 45.0061 15.848 44.7634C15.9485 44.5206 16.0001 44.2605 15.9999 43.9978V19.9978C16.0001 19.7351 15.9485 19.475 15.848 19.2323C15.7476 18.9896 15.6002 18.769 15.4145 18.5833C15.2287 18.3975 15.0082 18.2502 14.7655 18.1498C14.5228 18.0493 14.2626 17.9977 13.9999 17.9978ZM11.9999 41.9978H7.99994V21.9978H11.9999V41.9978ZM10.0292 3.08382C9.15396 3.03143 8.27717 3.15761 7.45219 3.45471C6.62721 3.7518 5.87129 4.2136 5.23038 4.812C4.58947 5.41041 4.07697 6.13293 3.72406 6.93562C3.37115 7.73831 3.18519 8.60439 3.17749 9.4812C3.1698 10.358 3.34054 11.2272 3.67931 12.036C4.01809 12.8447 4.51783 13.5761 5.14814 14.1857C5.77845 14.7953 6.52616 15.2702 7.3458 15.5818C8.16544 15.8933 9.03988 16.0348 9.91594 15.9978H9.97258C10.8502 16.0499 11.7292 15.9226 12.5559 15.6235C13.3826 15.3245 14.1397 14.86 14.7808 14.2584C15.4219 13.6569 15.9337 12.931 16.2848 12.125C16.6359 11.319 16.8189 10.4499 16.8228 9.57074C16.8266 8.69161 16.6512 7.82092 16.3072 7.01188C15.9632 6.20284 15.4578 5.47244 14.822 4.86531C14.1861 4.25818 13.4332 3.78707 12.6091 3.48076C11.7851 3.17446 10.9072 3.03939 10.0292 3.08382H10.0292ZM9.9726 11.9978H9.91594C9.57008 12.0398 9.21923 12.0074 8.88692 11.9027C8.55462 11.798 8.24855 11.6234 7.98923 11.3907C7.72991 11.1581 7.52334 10.8726 7.38337 10.5536C7.2434 10.2345 7.17327 9.88922 7.17768 9.54084C7.17768 8.04864 8.29682 7.0838 10.0292 7.0838C10.3786 7.03722 10.734 7.06606 11.0713 7.16837C11.4086 7.27068 11.7201 7.44408 11.9847 7.6769C12.2494 7.90973 12.4611 8.19656 12.6055 8.51808C12.75 8.83961 12.8239 9.18835 12.8222 9.54084C12.8222 11.033 11.7031 11.9978 9.9726 11.9978Z" fill="white"/>
</svg>
