<svg width="73" height="71" viewBox="0 0 73 71" fill="none" xmlns="http://www.w3.org/2000/svg">
<path d="M57.1732 12.1602H15.3762C13.0008 12.1602 10.7226 13.084 9.04298 14.7286C7.36331 16.3731 6.41968 18.6036 6.41968 20.9293V50.1598C6.41968 52.4855 7.36331 54.716 9.04298 56.3605C10.7226 58.0051 13.0008 58.929 15.3762 58.929H57.1732C59.5486 58.929 61.8267 58.0051 63.5064 56.3605C65.186 54.716 66.1297 52.4855 66.1297 50.1598V20.9293C66.1297 18.6036 65.186 16.3731 63.5064 14.7286C61.8267 13.084 59.5486 12.1602 57.1732 12.1602ZM55.9491 18.0063L38.3944 35.1938C38.1168 35.4678 37.7866 35.6852 37.4228 35.8336C37.059 35.982 36.6688 36.0584 36.2747 36.0584C35.8806 36.0584 35.4903 35.982 35.1265 35.8336C34.7627 35.6852 34.4325 35.4678 34.155 35.1938L16.6002 18.0063H55.9491ZM60.1587 50.1598C60.1587 50.935 59.8441 51.6785 59.2842 52.2267C58.7244 52.7749 57.965 53.0829 57.1732 53.0829H15.3762C14.5844 53.0829 13.825 52.7749 13.2651 52.2267C12.7052 51.6785 12.3907 50.935 12.3907 50.1598V22.1278L29.9454 39.3153C31.6248 40.9575 33.9012 41.8799 36.2747 41.8799C38.6482 41.8799 40.9246 40.9575 42.6039 39.3153L60.1587 22.1278V50.1598Z" fill="white"/>
</svg>
