<svg width="48" height="48" viewBox="0 0 48 48" fill="none" xmlns="http://www.w3.org/2000/svg">
<path d="M45.9823 7.90041C45.9826 7.54715 45.8892 7.20013 45.7117 6.8947C45.5342 6.58927 45.2789 6.33634 44.9718 6.16167C44.6648 5.987 44.3169 5.89683 43.9636 5.90034C43.6104 5.90385 43.2644 6.00092 42.9609 6.18165C41.7902 6.87842 40.5299 7.41202 39.2149 7.76765C37.3368 6.15612 34.9415 5.27426 32.4669 5.28327C29.752 5.2864 27.1446 6.34446 25.1953 8.23403C23.2459 10.1236 22.1072 12.6968 22.0196 15.4102C16.6676 14.5568 11.8169 11.7633 8.3925 7.56251C8.18617 7.31218 7.92267 7.11514 7.62422 6.988C7.32577 6.86087 7.00112 6.80737 6.67766 6.83201C6.35438 6.85863 6.04245 6.9636 5.76884 7.13783C5.49524 7.31207 5.26819 7.55033 5.10734 7.83201C4.28239 9.27164 3.8086 10.8855 3.72444 12.5426C3.64027 14.1997 3.94811 15.8533 4.62296 17.3691L4.61906 17.373C4.31575 17.5598 4.06544 17.8213 3.89207 18.1325C3.71869 18.4437 3.62806 18.7942 3.62882 19.1504C3.62515 19.4442 3.64277 19.738 3.68156 20.0293C3.88583 22.5458 5.00112 24.9014 6.81828 26.6543C6.695 26.8891 6.61977 27.1462 6.59696 27.4104C6.57416 27.6747 6.60424 27.9408 6.68546 28.1933C7.47769 30.6616 9.16246 32.7455 11.4101 34.0371C9.12656 34.9201 6.66092 35.228 4.23038 34.9336C3.78052 34.8771 3.32484 34.9752 2.93807 35.2118C2.55131 35.4484 2.25643 35.8094 2.10181 36.2356C1.94718 36.6618 1.942 37.1279 2.0871 37.5574C2.2322 37.987 2.51897 38.3544 2.90038 38.5996C7.08057 41.2919 11.9477 42.7233 16.9199 42.7227C22.5584 42.7861 28.0599 40.9843 32.5684 37.5976C37.0769 34.2108 40.3398 29.429 41.8495 23.996C42.5557 21.6293 42.9162 19.173 42.9199 16.7031C42.9199 16.5723 42.9199 16.4375 42.9179 16.3028C43.9621 15.1766 44.7711 13.8534 45.2973 12.4105C45.8235 10.9677 46.0564 9.4344 45.9823 7.90041ZM39.3691 14.3242C39.0387 14.7149 38.8715 15.2178 38.9023 15.7285C38.9218 16.0585 38.9198 16.3905 38.9198 16.7031C38.9157 18.7902 38.6098 20.8657 38.0116 22.8653C36.7786 27.488 34.03 31.5633 30.2058 34.4384C26.3817 37.3136 21.7033 38.8222 16.9199 38.7227C15.2017 38.7232 13.4894 38.5213 11.8184 38.1211C13.9492 37.4344 15.9415 36.3757 17.7031 34.9942C18.0276 34.7387 18.265 34.3891 18.3829 33.9933C18.5008 33.5975 18.4933 33.175 18.3615 32.7836C18.2297 32.3923 17.98 32.0513 17.6467 31.8075C17.3134 31.5637 16.9128 31.429 16.4999 31.4219C14.8376 31.396 13.2502 30.7259 12.0722 29.5528C12.371 29.4961 12.6679 29.4258 12.9628 29.3418C13.3948 29.2188 13.7729 28.9541 14.0361 28.5901C14.2994 28.2261 14.4325 27.7842 14.414 27.3354C14.3955 26.8866 14.2265 26.457 13.9342 26.116C13.6419 25.7749 13.2433 25.5421 12.8027 25.4551C11.8377 25.2645 10.9297 24.854 10.1493 24.2555C9.36882 23.6569 8.73691 22.8864 8.30266 22.0039C8.66412 22.0532 9.02788 22.0839 9.3925 22.0957C9.82566 22.1023 10.2497 21.9709 10.6032 21.7205C10.9568 21.4702 11.2216 21.1139 11.3593 20.7031C11.4913 20.2887 11.4845 19.8425 11.34 19.4322C11.1954 19.0219 10.9211 18.67 10.5585 18.4297C9.67881 17.8436 8.9582 17.0485 8.46123 16.1156C7.96426 15.1827 7.70643 14.141 7.71086 13.084C7.71086 12.9512 7.71476 12.8184 7.72258 12.6875C12.2051 16.868 18.0192 19.3324 24.1406 19.6465C24.4496 19.6587 24.7573 19.6005 25.0405 19.4763C25.3237 19.3521 25.575 19.1652 25.7754 18.9297C25.9737 18.6919 26.1142 18.4113 26.1857 18.11C26.2572 17.8087 26.2577 17.495 26.1874 17.1934C26.073 16.7161 26.0146 16.2271 26.0135 15.7364C26.0154 14.0254 26.6958 12.3851 27.9056 11.1753C29.1155 9.96548 30.7558 9.28502 32.4667 9.28321C33.347 9.28085 34.2182 9.46101 35.0253 9.8123C35.8325 10.1636 36.558 10.6784 37.1562 11.3242C37.3868 11.5724 37.6772 11.7574 37.9995 11.8617C38.3219 11.966 38.6656 11.9861 38.9979 11.92C39.8195 11.7601 40.6293 11.5448 41.4218 11.2755C40.8812 12.3814 40.1905 13.4074 39.3691 14.3242Z" 
fill="white"/>
</svg>
