<svg width="52" height="51" viewBox="0 0 52 51" fill="none" xmlns="http://www.w3.org/2000/svg">
<path d="M43.6868 5.44225H38.5688V2.93678C38.5688 2.27228 38.2992 1.63501 37.8193 1.16514C37.3394 0.695273 36.6885 0.431305 36.0098 0.431305C35.3312 0.431305 34.6803 0.695273 34.2004 1.16514C33.7204 1.63501 33.4508 2.27228 33.4508 2.93678V5.44225H18.0968V2.93678C18.0968 2.27228 17.8272 1.63501 17.3473 1.16514C16.8674 0.695273 16.2165 0.431305 15.5378 0.431305C14.8591 0.431305 14.2083 0.695273 13.7284 1.16514C13.2484 1.63501 12.9788 2.27228 12.9788 2.93678V5.44225H7.86084C5.82477 5.44225 3.8721 6.23415 2.43238 7.64375C0.992663 9.05336 0.183838 10.9652 0.183838 12.9587V43.0243C0.183838 45.0178 0.992663 46.9296 2.43238 48.3392C3.8721 49.7488 5.82477 50.5407 7.86084 50.5407H43.6868C45.7229 50.5407 47.6756 49.7488 49.1153 48.3392C50.555 46.9296 51.3638 45.0178 51.3638 43.0243V12.9587C51.3638 10.9652 50.555 9.05336 49.1153 7.64375C47.6756 6.23415 45.7229 5.44225 43.6868 5.44225ZM46.2458 43.0243C46.2458 43.6888 45.9762 44.3261 45.4963 44.796C45.0164 45.2658 44.3655 45.5298 43.6868 45.5298H7.86084C7.18215 45.5298 6.53126 45.2658 6.05135 44.796C5.57145 44.3261 5.30184 43.6888 5.30184 43.0243V25.486H46.2458V43.0243ZM46.2458 20.4751H5.30184V12.9587C5.30184 12.2942 5.57145 11.6569 6.05135 11.187C6.53126 10.7172 7.18215 10.4532 7.86084 10.4532H12.9788V12.9587C12.9788 13.6232 13.2484 14.2604 13.7284 14.7303C14.2083 15.2002 14.8591 15.4641 15.5378 15.4641C16.2165 15.4641 16.8674 15.2002 17.3473 14.7303C17.8272 14.2604 18.0968 13.6232 18.0968 12.9587V10.4532H33.4508V12.9587C33.4508 13.6232 33.7204 14.2604 34.2004 14.7303C34.6803 15.2002 35.3312 15.4641 36.0098 15.4641C36.6885 15.4641 37.3394 15.2002 37.8193 14.7303C38.2992 14.2604 38.5688 13.6232 38.5688 12.9587V10.4532H43.6868C44.3655 10.4532 45.0164 10.7172 45.4963 11.187C45.9762 11.6569 46.2458 12.2942 46.2458 12.9587V20.4751Z" fill="white"/>
</svg>
