<svg width="47" height="46" viewBox="0 0 47 46" fill="none" xmlns="http://www.w3.org/2000/svg">
<path d="M46.6195 2.48731C46.23 1.569 45.4846 0.839247 44.5467 0.457883C44.0852 0.265309 43.5896 0.163164 43.088 0.157227H4.70304C3.68501 0.157227 2.70867 0.55318 1.98881 1.25798C1.26896 1.96278 0.864542 2.9187 0.864542 3.91543C0.864542 4.91217 1.26896 5.86809 1.98881 6.57289C2.70867 7.27769 3.68501 7.67364 4.70304 7.67364H33.8373L1.97771 38.8292C1.61793 39.1786 1.33237 39.5942 1.13749 40.0522C0.942618 40.5102 0.842285 41.0014 0.842285 41.4975C0.842285 41.9936 0.942618 42.4849 1.13749 42.9428C1.33237 43.4008 1.61793 43.8165 1.97771 44.1658C2.33455 44.5181 2.75909 44.7977 3.22684 44.9885C3.6946 45.1793 4.19631 45.2775 4.70304 45.2775C5.20977 45.2775 5.71148 45.1793 6.17924 44.9885C6.647 44.7977 7.07154 44.5181 7.42838 44.1658L39.2495 12.9727V41.4975C39.2495 42.4942 39.654 43.4502 40.3738 44.155C41.0937 44.8598 42.07 45.2557 43.088 45.2557C44.1061 45.2557 45.0824 44.8598 45.8023 44.155C46.5221 43.4502 46.9265 42.4942 46.9265 41.4975V3.91543C46.9205 3.42432 46.8162 2.93913 46.6195 2.48731Z" fill="#fff"/>
</svg>
